<?xml version="1.0" encoding="UTF-8"?>
<!DOCTYPE svg PUBLIC "-//W3C//DTD SVG 1.1//EN" "http://www.w3.org/Graphics/SVG/1.1/DTD/svg11.dtd">
<svg xmlns="http://www.w3.org/2000/svg" version="1.1" width="564px" height="564px" style="shape-rendering:geometricPrecision; text-rendering:geometricPrecision; image-rendering:optimizeQuality; fill-rule:evenodd; clip-rule:evenodd" xmlns:xlink="http://www.w3.org/1999/xlink">
<g><path style="opacity:0.994" fill="#f97359" d="M 279.5,-0.5 C 281.167,-0.5 282.833,-0.5 284.5,-0.5C 364.692,46.5187 445.192,93.1854 526,139.5C 526.667,234.167 526.667,328.833 526,423.5C 445.192,469.815 364.692,516.481 284.5,563.5C 282.833,563.5 281.167,563.5 279.5,563.5C 199.308,516.481 118.808,469.815 38,423.5C 37.3333,328.833 37.3333,234.167 38,139.5C 118.808,93.1854 199.308,46.5187 279.5,-0.5 Z M 216.5,184.5 C 268.834,184.333 321.168,184.5 373.5,185C 374.766,185.309 375.933,185.809 377,186.5C 378.623,198.07 378.957,209.736 378,221.5C 377.097,222.701 375.931,223.535 374.5,224C 323.5,224.333 272.5,224.667 221.5,225C 218.461,226.031 215.961,227.865 214,230.5C 212,240.5 212,250.5 214,260.5C 215.663,262.917 217.829,264.75 220.5,266C 259.833,266.333 299.167,266.667 338.5,267C 363.692,267.145 379.192,279.311 385,303.5C 387.495,321.973 386.828,340.307 383,358.5C 374.074,376.895 359.24,386.061 338.5,386C 283.833,386.667 229.167,386.667 174.5,386C 172.671,385.727 171.171,384.893 170,383.5C 168.024,372.153 168.024,360.82 170,349.5C 170.903,348.299 172.069,347.465 173.5,347C 226.833,346.667 280.167,346.333 333.5,346C 338.099,344.402 340.932,341.235 342,336.5C 342.667,328.167 342.667,319.833 342,311.5C 340.833,306.333 337.667,303.167 332.5,302C 291.5,301.667 250.5,301.333 209.5,301C 184.397,297.897 170.897,283.731 169,258.5C 168.333,247.5 168.333,236.5 169,225.5C 171.171,205.331 182.004,192.498 201.5,187C 206.643,186.162 211.643,185.328 216.5,184.5 Z"/></g>
</svg>
